<svg xmlns="http://www.w3.org/2000/svg" viewBox="0 0 64 64">
  <!-- Background disc matches the app's amber accent -->
  <circle cx="32" cy="32" r="32" fill="#f0a040"/>
  <!-- Three trefoil blades (60° wide, 120° apart), with a center dot -->
  <g fill="#1a1a2e">
    <path d="M18 7.75 A28 28 0 0 1 46 7.75 L39 19.88 A14 14 0 0 0 25 19.88 Z"/>
    <path d="M18 7.75 A28 28 0 0 1 46 7.75 L39 19.88 A14 14 0 0 0 25 19.88 Z" transform="rotate(120 32 32)"/>
    <path d="M18 7.75 A28 28 0 0 1 46 7.75 L39 19.88 A14 14 0 0 0 25 19.88 Z" transform="rotate(240 32 32)"/>
    <circle cx="32" cy="32" r="6"/>
  </g>
</svg>
